<?xml version="1.0" encoding="UTF-8"?>
<!DOCTYPE svg PUBLIC "-//W3C//DTD SVG 1.1//EN" "http://www.w3.org/Graphics/SVG/1.1/DTD/svg11.dtd">
<!-- Creator: CorelDRAW X6 -->
<svg xmlns="http://www.w3.org/2000/svg" xml:space="preserve" width="59.0329mm" height="49.0846mm" version="1.1" style="shape-rendering:geometricPrecision; text-rendering:geometricPrecision; image-rendering:optimizeQuality; fill-rule:evenodd; clip-rule:evenodd"
viewBox="0 0 8172 6795"
 xmlns:xlink="http://www.w3.org/1999/xlink">
 <defs>
  <style type="text/css">
   <![CDATA[
    .fil0 {fill:#2B2A29;fill-rule:nonzero}
   ]]>
  </style>
 </defs>
 <g id="Capa_x0020_1">
  <metadata id="CorelCorpID_0Corel-Layer"/>
  <path class="fil0" d="M194 0l874 0 129 0 50 119 612 1458 5901 0 0 1c63,-1 122,12 175,36 72,33 131,86 172,151 39,62 62,136 65,212 2,63 -9,128 -36,192l0 0 -919 2332c-45,115 -117,196 -208,249 -85,50 -182,72 -287,73l-3 1 -3600 0 -12 -1c-102,-6 -189,-41 -263,-96 -68,-51 -122,-118 -164,-196l-6 -11 -3 -7 -1732 -4124 -746 0 0 0 -1 0c-107,0 -193,-87 -193,-194 0,-107 87,-194 193,-194l1 0 0 0zm1828 1964l1003 2389c16,28 33,50 51,63 13,9 28,16 47,18l3596 0 0 1c40,-1 72,-7 95,-20 17,-10 31,-28 43,-57l919 -2332 5 -10c4,-9 6,-19 6,-28 0,-8 -2,-15 -6,-20 -2,-3 -3,-5 -5,-5 -1,-1 -4,-1 -7,-1l-7 1 -5739 0z"/>
  <path class="fil0" d="M3483 5208c219,0 417,89 561,232 144,144 232,342 232,561 0,219 -89,417 -232,561 -144,144 -342,232 -561,232 -219,0 -417,-89 -561,-232 -144,-144 -232,-342 -232,-561 0,-219 89,-417 232,-561 144,-144 342,-232 561,-232zm287 506c-73,-73 -175,-119 -287,-119 -112,0 -213,45 -287,119 -73,73 -119,175 -119,287 0,112 45,213 119,287 73,73 175,119 287,119 112,0 213,-45 287,-119 73,-73 119,-175 119,-287 0,-112 -45,-213 -119,-287z"/>
  <path class="fil0" d="M6428 5208c219,0 417,89 561,232 144,144 232,342 232,561 0,219 -89,417 -232,561 -144,144 -342,232 -561,232 -219,0 -417,-89 -561,-232 -144,-144 -232,-342 -232,-561 0,-219 89,-417 232,-561 144,-144 342,-232 561,-232zm287 506c-73,-73 -175,-119 -287,-119 -112,0 -213,45 -287,119 -73,73 -119,175 -119,287 0,112 45,213 119,287 73,73 175,119 287,119 112,0 213,-45 287,-119 73,-73 119,-175 119,-287 0,-112 -45,-213 -119,-287z"/>
 </g>
</svg>
