<?xml version="1.0" encoding="UTF-8"?>
<!DOCTYPE svg PUBLIC "-//W3C//DTD SVG 1.1//EN" "http://www.w3.org/Graphics/SVG/1.1/DTD/svg11.dtd">
<!-- Creator: CorelDRAW X6 -->
<svg xmlns="http://www.w3.org/2000/svg" xml:space="preserve" width="29.7942mm" height="29.7942mm" version="1.1" style="shape-rendering:geometricPrecision; text-rendering:geometricPrecision; image-rendering:optimizeQuality; fill-rule:evenodd; clip-rule:evenodd"
viewBox="0 0 239 239"
 xmlns:xlink="http://www.w3.org/1999/xlink">
 <defs>
  <style type="text/css">
   <![CDATA[
    .fil0 {fill:none}
    .fil1 {fill:#373435}
   ]]>
  </style>
 </defs>
 <g id="Capa_x0020_1">
  <metadata id="CorelCorpID_0Corel-Layer"/>
  <rect class="fil0" width="239" height="239"/>
  <path class="fil1" d="M49 232l99 0c2,0 5,-2 5,-5 0,-2 -2,-5 -5,-5l-99 0c-28,0 -26,-22 -16,-44 10,-22 29,-37 52,-45l1 0 1 1c9,7 20,10 31,10l0 0c0,0 0,0 0,0l0 0 0 0c11,0 22,-3 31,-10l1 -1 1 0c19,6 37,21 48,37 7,11 16,30 8,43 -4,6 -12,8 -19,8l-13 0c-2,0 -5,2 -5,5 0,2 2,5 5,5l13 0c10,0 20,-3 26,-11 10,-15 3,-37 -5,-51 -13,-22 -34,-38 -58,-45 -3,-1 -4,1 -7,2 -8,6 -17,9 -26,9 -9,0 -17,-3 -25,-7 -2,-2 -5,-5 -8,-4 -23,7 -44,25 -57,46 -8,13 -17,36 -7,51 6,9 16,11 26,11zm125 -171c0,-30 -24,-54 -54,-54 -30,0 -54,24 -54,54 0,30 24,54 54,54 30,0 54,-24 54,-54zm-100 0c0,-25 20,-45 45,-45 25,0 45,20 45,45 0,25 -20,45 -45,45 -25,0 -45,-20 -45,-45z"/>
 </g>
</svg>
