<?xml version="1.0" encoding="UTF-8"?>
<!DOCTYPE svg PUBLIC "-//W3C//DTD SVG 1.1//EN" "http://www.w3.org/Graphics/SVG/1.1/DTD/svg11.dtd">
<!-- Creator: CorelDRAW X6 -->
<svg xmlns="http://www.w3.org/2000/svg" xml:space="preserve" width="149.931mm" height="32.1028mm" version="1.1" style="shape-rendering:geometricPrecision; text-rendering:geometricPrecision; image-rendering:optimizeQuality; fill-rule:evenodd; clip-rule:evenodd"
viewBox="0 0 149930 32267"
 xmlns:xlink="http://www.w3.org/1999/xlink">
 <defs>
  <style type="text/css">
   <![CDATA[
    .fil0 {fill:black}
    .fil1 {fill:#E53308;fill-rule:nonzero}
   ]]>
  </style>
 </defs>
 <g id="Capa_x0020_1">
  <metadata id="CorelCorpID_0Corel-Layer"/>
  <path class="fil0" d="M29650 4495c-471,0 -456,434 -456,434l0 2224c0,0 -20,438 432,438l5619 0 0 3605 -5578 0c-505,0 -474,465 -474,465l0 2272c0,0 -28,459 470,459l6015 0 0 3898 -11186 0 0 -17694 11186 0 0 3897 -6029 0zm19390 3905l7712 0c0,0 142,1622 -68,3118 -213,1497 -709,2725 -1571,3873 -1794,2401 -4309,3475 -7331,3475 -5694,0 -9657,-3780 -9657,-9342 0,-5747 3985,-9525 9820,-9525 3721,0 6608,1642 8168,4954l-4468 1826c-651,-1686 -2019,-2817 -3913,-2817 -3098,0 -4710,2888 -4710,5585 0,2752 1687,5538 4780,5538 1863,0 3538,-844 4125,-2500 83,-230 -47,-571 -452,-571l-2411 0c-552,0 -566,-554 -566,-554l0 -2545c0,0 -26,-516 542,-516zm-46565 -7802l5080 0 3223 8645c134,294 517,275 644,0l3397 -8645 5133 0 2139 17694 -4709 0 -900 -9084c-37,-339 -477,-322 -602,0l-3738 8674c0,0 -146,411 -572,411l-1068 0c-408,0 -585,-427 -585,-427l-3541 -8726c-157,-345 -551,-271 -602,30l-1094 9122 -4679 0 2476 -17694zm132611 3897c-475,0 -460,434 -460,434l0 2224c0,0 -26,438 432,438l5620 0 0 3605 -5578 0c-508,0 -474,465 -474,465l0 2272c0,0 -34,459 474,459l6013 0 0 3898 -11193 0 0 -17694 11193 0 0 3897 -6027 0zm-24719 -3897l4702 0 6832 9652c205,317 646,317 646,-48l0 -9603 4706 0 0 17694 -4706 0 -6898 -9780c-204,-265 -581,-147 -581,206l0 9574 -4702 0 0 -17694zm-17316 8541c0,3052 2305,5278 5117,5278 2804,0 5109,-2225 5109,-5278 0,-2440 -2305,-4675 -5109,-4675 -2812,0 -5117,2235 -5117,4675zm15126 -23c0,5728 -4200,9761 -10009,9761 -5809,0 -10021,-4033 -10021,-9761 0,-5355 4809,-9108 10021,-9108 5204,0 10009,3753 10009,9108zm-25301 9175l-4707 0 0 -13213c0,-573 -542,-584 -542,-584l-3646 0 0 -3897 13080 0 0 3897 -3592 0c-625,0 -593,547 -593,547l0 13249zm-15071 -7382l-1321 -3935c-131,-360 -669,-348 -800,30l-1316 3849c-115,375 85,697 523,697l2397 0c442,0 638,-322 516,-642zm-4732 4310c-280,0 -344,232 -344,232l-1159 2840 -4995 0 6963 -17694 5140 0 6815 17694 -5014 0 -1089 -2840c0,0 -56,-232 -322,-232l-5995 0z"/>
  <path class="fil1" d="M118650 31739c-346,338 -757,507 -1232,507 -476,0 -886,-169 -1232,-507 -346,-338 -519,-740 -519,-1204 0,-465 173,-866 519,-1204 346,-338 756,-507 1232,-507 476,0 886,169 1232,507 346,338 519,739 519,1204 0,465 -173,866 -519,1204zm28989 528c-966,0 -1701,-239 -2205,-718 -504,-479 -756,-1169 -756,-2071l0 -5324 -1729 0 0 -2345 1729 0 0 -2789 2767 0 0 2789 2119 0 0 2345 -2119 0 0 4606c0,324 87,592 259,803 173,211 404,317 692,317 432,0 749,-98 951,-296l584 2028c-504,436 -1268,655 -2291,655zm-8513 -248c-1559,408 -2977,269 -4254,-417 -1277,-686 -2129,-1805 -2554,-3356 -399,-1456 -244,-2809 465,-4059 709,-1250 1822,-2074 3339,-2471 1503,-394 2858,-213 4065,543 1207,756 2032,1943 2476,3562l157 571 -7496 1963c263,631 711,1097 1346,1397 634,301 1362,343 2183,129 445,-117 905,-332 1378,-646 473,-313 822,-660 1047,-1039l1628 1367c-766,1178 -2026,1996 -3780,2456zm645 -6709c-195,-547 -559,-991 -1092,-1332 -534,-341 -1197,-408 -1991,-200 -752,197 -1276,571 -1572,1122 -296,551 -401,1122 -314,1712l4969 -1302zm-9058 6703l-2745 0 0 -6169c0,-1267 -641,-1901 -1924,-1901 -994,0 -1787,402 -2378,1205l0 6866 -2745 0 0 -10204 2745 0 0 1331c908,-1056 2126,-1584 3653,-1584 1124,0 1971,289 2540,866 569,578 854,1373 854,2388l0 7204z"/>
 </g>
</svg>
