<?xml version="1.0" encoding="UTF-8"?>
<!DOCTYPE svg PUBLIC "-//W3C//DTD SVG 1.1//EN" "http://www.w3.org/Graphics/SVG/1.1/DTD/svg11.dtd">
<!-- Creator: CorelDRAW X6 -->
<svg xmlns="http://www.w3.org/2000/svg" xml:space="preserve" width="27.1227mm" height="36.9056mm" version="1.1" style="shape-rendering:geometricPrecision; text-rendering:geometricPrecision; image-rendering:optimizeQuality; fill-rule:evenodd; clip-rule:evenodd"
viewBox="0 0 2155 2932"
 xmlns:xlink="http://www.w3.org/1999/xlink">
 <defs>
  <style type="text/css">
   <![CDATA[
    .fil0 {fill:#2B2A29;fill-rule:nonzero}
   ]]>
  </style>
 </defs>
 <g id="Capa_x0020_1">
  <metadata id="CorelCorpID_0Corel-Layer"/>
  <path class="fil0" d="M1077 156c-254,0 -485,103 -651,270 -167,167 -270,397 -270,651 0,77 10,153 28,226 19,73 46,145 82,211l0 0 811 1245 812 -1246 0 0c36,-67 63,-138 82,-211 19,-73 28,-149 28,-226 0,-254 -103,-484 -270,-651 -167,-167 -397,-270 -651,-270zm-761 160c195,-195 464,-316 761,-316 297,0 566,121 761,316 195,195 316,464 316,761 0,89 -11,178 -33,264 -22,86 -54,169 -96,247l0 1 -825 1270c-12,22 -30,41 -51,53l0 0c-21,13 -46,20 -71,20 -25,0 -50,-7 -71,-20 -21,-12 -39,-31 -51,-53l-825 -1269 0 -1c-42,-78 -75,-162 -96,-248 -22,-86 -33,-175 -33,-264 0,-297 121,-566 316,-761zm761 1339c-159,0 -304,-65 -408,-169 -105,-105 -169,-249 -169,-408 0,-159 65,-304 169,-408 105,-105 249,-169 408,-169 159,0 304,65 408,169 105,105 169,249 169,408 0,159 -65,304 -169,408 -105,105 -249,169 -408,169zm-298 -279c76,76 182,124 298,124 116,0 222,-47 298,-124 76,-76 124,-182 124,-298 0,-116 -47,-222 -124,-298 -76,-76 -182,-124 -298,-124 -116,0 -222,47 -298,124 -76,76 -124,182 -124,298 0,116 47,222 124,298z"/>
 </g>
</svg>
