<?xml version="1.0" encoding="UTF-8"?>
<!DOCTYPE svg PUBLIC "-//W3C//DTD SVG 1.1//EN" "http://www.w3.org/Graphics/SVG/1.1/DTD/svg11.dtd">
<!-- Creator: CorelDRAW X6 -->
<svg xmlns="http://www.w3.org/2000/svg" xml:space="preserve" width="29.7942mm" height="29.7942mm" version="1.1" style="shape-rendering:geometricPrecision; text-rendering:geometricPrecision; image-rendering:optimizeQuality; fill-rule:evenodd; clip-rule:evenodd"
viewBox="0 0 243 243"
 xmlns:xlink="http://www.w3.org/1999/xlink">
 <defs>
  <style type="text/css">
   <![CDATA[
    .fil0 {fill:none}
    .fil1 {fill:#373435}
   ]]>
  </style>
 </defs>
 <g id="Capa_x0020_1">
  <metadata id="CorelCorpID_0Corel-Layer"/>
  <rect class="fil0" width="243" height="243"/>
  <path class="fil1" d="M210 120c11,-4 19,-14 19,-26l0 -20c0,-3 -15,-25 -17,-29l-14 -21c-1,-2 -2,-5 -5,-5l-141 0c-4,0 -8,9 -10,12l-23 36c-1,2 -4,5 -4,7 0,11 -2,27 6,36 2,3 8,8 12,9l1 0 0 96c0,3 -1,9 4,9l169 0c5,0 4,-5 4,-9l0 -95 1 0zm-123 96l0 -77 0 -4 4 0 61 0 4 0 0 4 0 77 46 0 0 -95 -1 0c0,0 0,0 -1,0 -7,0 -13,-1 -19,-6 -2,-1 -3,-3 -5,-4 -1,-1 -2,-3 -3,-3l0 0 0 0c-1,1 -2,2 -3,4 -2,2 -4,4 -7,6 -9,6 -21,6 -30,0 -2,-1 -4,-3 -6,-5 -1,-1 -2,-3 -3,-4 0,0 -1,0 -1,-1l0 0 0 0c-1,1 -2,2 -3,3 -2,3 -5,5 -7,6 -9,6 -21,6 -30,0 -2,-1 -4,-3 -6,-5 -1,-1 -2,-3 -3,-4 0,0 -1,0 -1,-1l0 0 0 0c-1,1 -3,3 -4,4 -2,2 -4,4 -6,5 -7,4 -10,4 -18,4l-1 0 0 95 46 0zm61 0l0 -73 -53 0 0 73 53 0zm29 -125l0 -13 44 0 0 1c0,13 2,27 -13,33 -9,3 -18,2 -25,-5 -4,-4 -6,-10 -6,-16zm-52 0l0 -13 44 0 0 1c0,10 1,20 -6,28 -5,5 -12,8 -19,7 -12,-2 -19,-11 -19,-23zm-52 0l0 -13 44 0 0 1c0,10 1,20 -6,28 -5,5 -12,8 -19,7 -12,-2 -19,-11 -19,-23zm-29 23c-13,0 -23,-9 -23,-22l0 -14 44 0 0 1c0,12 1,26 -12,33 -2,1 -7,2 -9,2zm8 -88l138 0 0 1c0,1 2,4 3,5 2,3 4,7 6,10 3,5 7,10 10,16 1,2 2,4 3,5 1,2 2,4 3,5l1 1 -192 0 21 -33c1,-2 6,-9 6,-11l0 -1z"/>
 </g>
</svg>
